<?xml version="1.0" standalone="no"?>
<!DOCTYPE svg PUBLIC "-//W3C//DTD SVG 20010904//EN"
 "http://www.w3.org/TR/2001/REC-SVG-20010904/DTD/svg10.dtd">
<svg version="1.0" xmlns="http://www.w3.org/2000/svg"
 width="300.000000pt" height="337.000000pt" viewBox="0 0 300.000000 337.000000"
 preserveAspectRatio="xMidYMid meet">
<metadata>
Created by potrace 1.10, written by Peter Selinger 2001-2011
</metadata>
<g transform="translate(0.000000,337.000000) scale(0.100000,-0.100000)"
fill="#000000" stroke="none">
<path d="M1591 3359 c-126 -25 -268 -178 -331 -359 -18 -53 -24 -94 -28 -216
-4 -148 -4 -154 27 -259 38 -128 64 -181 132 -271 l52 -68 -56 -52 c-30 -28
-79 -65 -109 -82 -55 -32 -230 -91 -330 -112 -55 -11 -62 -16 -132 -95 -41
-46 -86 -105 -102 -131 -61 -107 -119 -203 -169 -279 -171 -261 -465 -803
-515 -949 -11 -34 -23 -86 -27 -117 -11 -106 41 -270 101 -321 83 -71 320 -58
551 29 39 14 144 59 235 98 176 77 289 117 382 135 49 10 62 9 90 -6 58 -30
130 -44 264 -50 169 -9 186 -1 233 111 17 41 31 87 31 102 0 16 8 55 18 88 13
43 18 85 16 150 l-3 90 -38 17 c-49 22 -141 23 -171 2 -22 -15 -24 -15 -36 2
-11 15 -10 23 6 53 11 20 26 43 33 51 30 34 65 126 65 172 0 45 -2 49 -41 74
-22 14 -42 24 -43 22 -1 -2 -11 -25 -21 -53 -27 -73 -83 -151 -167 -230 -120
-113 -307 -278 -344 -303 -60 -41 -128 -50 -679 -92 -272 -22 -338 -37 -370
-87 -26 -38 -10 -39 27 -1 29 30 42 36 113 46 44 6 141 16 215 22 615 47 637
50 715 105 27 19 82 64 120 100 39 36 119 109 178 162 113 100 178 183 204
259 8 24 17 44 20 44 3 0 17 -7 32 -16 26 -15 27 -19 20 -68 -7 -56 -27 -101
-64 -151 -12 -16 -30 -45 -39 -63 -21 -40 -14 -51 53 -94 45 -28 121 -39 121
-18 0 6 -16 10 -35 10 -35 0 -85 18 -85 31 0 24 111 27 165 5 l33 -14 -5 -59
c-3 -40 -11 -63 -24 -75 -10 -9 -19 -22 -19 -29 0 -8 7 -6 20 6 31 28 34 12
11 -64 -11 -38 -21 -82 -21 -99 0 -42 -54 -156 -84 -175 -52 -34 -301 -17
-402 28 l-59 26 -94 -22 c-92 -21 -233 -73 -376 -139 -342 -157 -612 -204
-729 -126 -78 51 -129 265 -92 386 31 103 211 465 319 640 25 41 72 120 104
175 31 55 88 146 125 203 37 57 92 147 122 200 34 60 83 128 129 178 73 78 77
81 140 92 97 18 258 74 323 113 31 19 81 57 111 86 l53 51 91 -39 c76 -33 101
-39 158 -39 88 0 187 30 246 75 25 19 47 35 49 35 1 0 8 -19 15 -42 30 -97 96
-159 247 -229 294 -136 310 -146 358 -223 94 -149 204 -533 257 -896 11 -74
29 -180 40 -235 11 -54 29 -166 39 -249 19 -140 24 -165 34 -155 7 6 -30 280
-52 394 -11 55 -28 152 -37 215 -44 313 -147 703 -231 874 -49 101 -107 154
-232 212 -324 151 -336 160 -387 260 -19 39 -35 76 -35 82 0 7 23 58 51 113
71 143 92 226 91 374 -1 208 -60 370 -184 500 -132 140 -241 183 -387 154z
m186 -29 c70 -24 175 -106 228 -178 119 -163 168 -384 130 -584 -13 -68 -33
-125 -75 -213 -51 -108 -62 -125 -108 -159 -72 -52 -145 -76 -236 -76 -65 0
-87 5 -166 39 -90 39 -109 55 -171 141 -44 61 -70 119 -100 225 -25 86 -29
117 -29 225 0 223 49 358 175 486 109 111 217 139 352 94z"/>
<path d="M1835 3250 c-3 -5 -1 -10 4 -10 6 0 11 5 11 10 0 6 -2 10 -4 10 -3 0
-8 -4 -11 -10z"/>
<path d="M1276 3138 c3 -5 10 -6 15 -3 13 9 11 12 -6 12 -8 0 -12 -4 -9 -9z"/>
<path d="M695 1549 c-4 -6 -5 -12 -2 -15 2 -3 7 2 10 11 7 17 1 20 -8 4z"/>
<path d="M2871 1224 c0 -11 3 -14 6 -6 3 7 2 16 -1 19 -3 4 -6 -2 -5 -13z"/>
<path d="M1415 891 c-3 -5 -2 -12 3 -15 5 -3 9 1 9 9 0 17 -3 19 -12 6z"/>
<path d="M146 843 c-6 -14 -5 -15 5 -6 7 7 10 15 7 18 -3 3 -9 -2 -12 -12z"/>
<path d="M1771 344 c0 -11 3 -14 6 -6 3 7 2 16 -1 19 -3 4 -6 -2 -5 -13z"/>
</g>
</svg>
