<?xml version="1.0" standalone="no"?>
<!DOCTYPE svg PUBLIC "-//W3C//DTD SVG 20010904//EN"
 "http://www.w3.org/TR/2001/REC-SVG-20010904/DTD/svg10.dtd">
<svg version="1.0" xmlns="http://www.w3.org/2000/svg"
 width="219.000000pt" height="300.000000pt" viewBox="0 0 219.000000 300.000000"
 preserveAspectRatio="xMidYMid meet">
<metadata>
Created by potrace 1.10, written by Peter Selinger 2001-2011
</metadata>
<g transform="translate(0.000000,300.000000) scale(0.100000,-0.100000)"
fill="#000000" stroke="none">
<path d="M1183 2991 c-89 -23 -227 -144 -275 -241 -48 -96 -70 -201 -71 -330
0 -101 3 -124 28 -190 31 -85 62 -133 135 -213 l51 -56 -38 -58 -37 -58 -8 40
c-4 22 -7 54 -7 71 -1 35 -27 64 -59 64 -16 0 -24 9 -30 32 -4 17 -16 36 -25
42 -15 9 -23 5 -48 -22 -25 -27 -32 -31 -49 -22 -28 15 -38 6 -66 -54 -13 -28
-29 -51 -36 -51 -20 0 -56 -62 -74 -126 -9 -33 -19 -59 -23 -59 -3 0 -31 10
-61 21 -105 41 -417 36 -434 -7 -3 -7 -14 -14 -25 -14 -11 0 -22 -4 -25 -8 -6
-10 110 -10 120 1 4 4 -8 7 -26 7 -62 0 -17 20 71 31 124 16 229 4 345 -37
l41 -15 -34 -99 c-18 -55 -36 -128 -39 -162 -4 -44 -31 -129 -86 -276 -122
-325 -171 -517 -189 -744 -6 -80 -7 -134 -1 -145 6 -10 17 -47 26 -83 16 -63
68 -162 109 -207 25 -28 85 -30 140 -5 62 28 184 141 196 182 29 97 52 277 71
547 6 78 14 153 19 166 5 14 14 58 20 100 16 118 45 182 95 216 87 60 140 143
170 264 10 38 34 95 57 132 23 35 38 69 34 75 -14 23 -64 9 -115 -31 -28 -22
-54 -38 -58 -35 -7 8 -8 54 -2 138 2 40 9 63 22 74 10 10 29 37 44 61 19 34
30 43 42 38 48 -21 110 -35 146 -35 50 0 193 35 214 53 12 9 16 9 19 0 12 -34
70 -97 116 -127 57 -36 229 -116 250 -116 26 0 125 -80 155 -125 49 -74 100
-204 148 -382 47 -170 50 -180 59 -172 6 6 -78 311 -103 375 -39 99 -94 200
-125 232 -44 45 -76 64 -191 111 -169 69 -264 136 -289 203 -4 11 11 34 44 70
218 236 218 661 0 860 -76 69 -146 100 -235 104 -39 2 -85 -1 -103 -5z m225
-41 c298 -138 353 -641 99 -907 -70 -73 -129 -100 -241 -110 -96 -8 -163 9
-214 53 -61 52 -139 163 -168 240 -63 167 -33 410 69 564 48 74 152 158 225
183 65 22 150 14 230 -23z m-547 -909 c4 -18 1 -83 -7 -145 -16 -129 -17 -168
-5 -146 4 8 14 70 21 138 7 67 16 122 20 122 4 0 17 -8 29 -17 28 -25 42 -123
34 -244 -3 -59 -2 -103 4 -114 9 -15 2 -31 -33 -82 -45 -65 -52 -83 -34 -83 6
0 10 6 10 13 0 22 78 120 131 165 58 48 109 59 88 20 -7 -13 -24 -41 -39 -63
-15 -22 -33 -67 -40 -100 -22 -107 -76 -197 -154 -254 -61 -45 -89 -95 -106
-192 -7 -35 -18 -93 -26 -129 -8 -36 -19 -135 -24 -220 -10 -153 -29 -318 -51
-449 -11 -63 -15 -69 -81 -134 -99 -96 -179 -133 -228 -107 -29 16 -101 144
-120 213 -16 59 -16 65 0 112 24 67 112 276 197 465 39 85 87 199 107 254 45
120 43 154 -17 268 -38 74 -39 81 -35 145 3 38 18 104 33 148 15 44 28 86 31
92 9 32 130 -61 176 -136 12 -19 24 -29 26 -22 5 15 -40 75 -91 121 l-39 35
24 126 c26 128 51 199 72 199 32 -1 34 -15 15 -154 -17 -126 -18 -158 -5 -145
2 2 12 67 21 144 13 102 23 148 37 168 26 36 50 31 59 -12z m-204 -133 c-3
-13 -11 -58 -18 -101 -13 -76 -14 -78 -39 -72 -14 4 -27 8 -29 10 -5 6 41 138
57 163 8 12 19 22 24 22 6 0 8 -10 5 -22z m-129 -590 c46 -91 50 -146 17 -233
-31 -83 -95 -234 -138 -325 -53 -115 -69 -152 -128 -300 l-59 -145 0 55 c0
203 61 473 178 785 33 88 66 177 73 197 7 20 15 35 18 33 3 -2 21 -32 39 -67z"/>
<path d="M1035 2830 c-3 -6 1 -7 9 -4 18 7 21 14 7 14 -6 0 -13 -4 -16 -10z"/>
</g>
</svg>
