<?xml version="1.0" standalone="no"?>
<!DOCTYPE svg PUBLIC "-//W3C//DTD SVG 20010904//EN"
 "http://www.w3.org/TR/2001/REC-SVG-20010904/DTD/svg10.dtd">
<svg version="1.0" xmlns="http://www.w3.org/2000/svg"
 width="204.000000pt" height="300.000000pt" viewBox="0 0 204.000000 300.000000"
 preserveAspectRatio="xMidYMid meet">
<metadata>
Created by potrace 1.10, written by Peter Selinger 2001-2011
</metadata>
<g transform="translate(0.000000,300.000000) scale(0.100000,-0.100000)"
fill="#000000" stroke="none">
<path d="M1100 2991 c-105 -15 -224 -120 -288 -251 -67 -136 -87 -283 -61
-439 14 -82 77 -221 129 -282 l39 -46 -22 -20 c-29 -27 -163 -106 -207 -123
-75 -29 -193 -96 -243 -138 -114 -98 -185 -228 -282 -517 -35 -104 -70 -206
-79 -226 -30 -72 -68 -247 -78 -371 -16 -176 -3 -279 52 -420 36 -93 47 -111
78 -130 55 -34 128 -31 184 7 51 37 185 223 273 382 68 121 102 181 193 334
l63 107 47 6 c59 8 143 50 232 116 l69 51 93 -16 c58 -10 101 -23 113 -35 33
-29 89 -60 111 -60 11 0 29 6 39 14 16 12 17 17 6 44 -19 46 -100 123 -156
147 -63 28 -156 51 -265 65 -46 6 -88 14 -92 16 -14 9 -106 -24 -185 -65 -43
-22 -125 -77 -183 -121 -58 -44 -172 -131 -255 -194 -144 -109 -238 -196 -264
-245 -23 -43 -4 -32 35 21 43 58 109 114 270 233 59 44 128 97 151 117 88 76
236 171 319 205 l85 34 132 -20 c188 -29 264 -56 330 -120 106 -99 67 -153
-51 -71 -49 34 -70 42 -150 54 l-94 15 -60 -49 c-79 -64 -176 -112 -236 -118
l-49 -4 -69 -117 c-83 -140 -150 -255 -217 -376 -41 -74 -147 -231 -199 -295
-24 -29 -83 -67 -111 -73 -41 -7 -95 12 -121 44 -32 37 -94 218 -106 307 -23
168 20 396 143 753 159 464 213 537 512 684 94 47 189 100 212 120 l42 35 72
-37 c66 -34 78 -37 153 -36 51 0 98 6 126 17 34 13 46 14 49 4 9 -26 79 -82
184 -145 83 -50 119 -78 153 -122 59 -75 155 -270 199 -406 29 -88 127 -452
152 -562 3 -13 10 -23 15 -23 5 0 7 8 4 18 -3 9 -32 123 -65 252 -71 281 -115
409 -186 552 -94 188 -119 217 -261 304 -142 86 -212 153 -174 166 5 2 34 27
64 56 92 89 147 208 172 372 12 86 12 107 -1 186 -26 147 -94 286 -172 352
-81 68 -202 100 -313 83z m211 -38 c132 -59 221 -201 259 -413 32 -174 -47
-419 -170 -534 -71 -65 -95 -79 -169 -96 -119 -28 -252 16 -330 109 -56 66
-118 195 -131 271 -16 91 -14 223 5 304 40 170 160 323 292 372 54 20 185 13
244 -13z"/>
<path d="M915 2061 c-3 -5 -2 -12 3 -15 5 -3 9 1 9 9 0 17 -3 19 -12 6z"/>
<path d="M1536 1811 c-4 -5 -2 -12 3 -15 5 -4 12 -2 15 3 4 5 2 12 -3 15 -5 4
-12 2 -15 -3z"/>
<path d="M1657 1739 c7 -7 15 -10 18 -7 3 3 -2 9 -12 12 -14 6 -15 5 -6 -5z"/>
<path d="M259 1553 c-13 -16 -12 -17 4 -4 9 7 17 15 17 17 0 8 -8 3 -21 -13z"/>
<path d="M963 1372 c-68 -7 -29 -17 70 -19 104 -1 190 -18 331 -65 76 -25 93
-44 49 -53 -48 -11 -60 -17 -45 -22 8 -3 33 0 57 7 l44 12 -25 49 c-25 50 -40
64 -31 29 3 -11 3 -20 1 -20 -2 0 -45 13 -96 29 -150 47 -255 63 -355 53z"/>
<path d="M260 750 c-9 -6 -10 -10 -3 -10 6 0 15 5 18 10 8 12 4 12 -15 0z"/>
</g>
</svg>
