<?xml version="1.0" standalone="no"?>
<!DOCTYPE svg PUBLIC "-//W3C//DTD SVG 20010904//EN"
 "http://www.w3.org/TR/2001/REC-SVG-20010904/DTD/svg10.dtd">
<svg version="1.0" xmlns="http://www.w3.org/2000/svg"
 width="242.000000pt" height="300.000000pt" viewBox="0 0 242.000000 300.000000"
 preserveAspectRatio="xMidYMid meet">
<metadata>
Created by potrace 1.10, written by Peter Selinger 2001-2011
</metadata>
<g transform="translate(0.000000,300.000000) scale(0.100000,-0.100000)"
fill="#000000" stroke="none">
<path d="M561 2993 c-97 -10 -261 -169 -323 -313 -29 -68 -32 -85 -32 -175 0
-93 3 -109 43 -220 106 -293 113 -319 119 -401 l5 -81 -121 -370 c-164 -500
-206 -667 -226 -898 -9 -99 -18 -204 -21 -233 -3 -30 -1 -51 3 -48 5 3 15 63
21 133 26 285 34 335 78 503 25 96 99 341 165 544 l121 369 -6 81 c-6 82 -21
134 -118 401 -41 113 -44 126 -43 220 0 86 4 109 28 168 34 81 135 202 218
260 56 39 59 40 160 45 122 5 196 -10 305 -63 88 -44 127 -81 164 -160 25 -51
29 -72 29 -145 0 -47 -9 -136 -19 -199 -17 -98 -18 -118 -6 -151 26 -72 23
-113 -10 -142 -17 -14 -25 -32 -25 -52 0 -20 -7 -36 -20 -44 -11 -7 -20 -17
-20 -23 0 -6 -9 -24 -21 -40 -19 -28 -24 -29 -95 -29 -45 0 -86 6 -102 14 -15
8 -46 17 -67 21 -22 3 -50 11 -62 17 -26 13 -45 2 -23 -12 8 -5 36 -14 63 -20
26 -5 63 -17 83 -25 36 -15 36 -15 30 -62 -11 -78 -15 -84 -36 -73 -24 13 -50
13 -50 0 0 -5 16 -12 35 -16 26 -5 43 -17 68 -53 39 -55 136 -237 199 -376
140 -306 181 -388 232 -470 31 -49 60 -97 65 -105 5 -8 13 -12 16 -8 4 4 -15
42 -42 85 -56 87 -154 278 -202 395 -48 115 -208 426 -247 480 l-34 48 11 70
12 70 63 0 c69 0 79 6 120 72 13 21 28 38 32 38 17 0 49 -46 55 -77 7 -34 73
-127 131 -183 29 -27 35 -40 31 -60 -3 -14 5 -64 19 -110 13 -47 34 -123 46
-170 20 -73 29 -91 67 -129 24 -24 46 -54 49 -68 12 -47 -6 -265 -27 -323 -73
-203 -99 -308 -99 -406 0 -41 4 -74 9 -74 5 0 10 35 10 78 1 95 30 213 100
403 14 40 22 93 27 185 8 146 2 167 -59 221 -32 28 -39 45 -81 200 -46 170
-52 203 -38 203 21 -1 44 -35 85 -123 25 -53 50 -97 56 -97 15 0 17 -7 -38
106 -33 67 -58 106 -77 119 -65 41 -181 180 -191 226 l-6 33 49 -29 c27 -16
72 -46 100 -67 28 -21 56 -38 62 -38 7 0 12 -3 12 -8 0 -4 32 -42 70 -85 129
-144 197 -325 239 -637 7 -47 19 -128 28 -180 39 -220 -6 -586 -93 -761 -26
-52 -41 -70 -70 -84 -91 -43 -203 8 -427 195 -76 63 -146 155 -253 333 -82
136 -101 163 -110 154 -4 -3 14 -37 38 -74 24 -37 55 -86 68 -108 44 -74 113
-180 141 -215 l27 -35 -34 -150 c-35 -154 -41 -196 -25 -179 4 5 23 77 41 161
l34 152 65 -58 c206 -180 355 -244 448 -191 125 70 220 549 170 855 -9 55 -23
150 -32 210 -43 297 -112 483 -231 614 -33 38 -86 100 -116 137 -64 81 -165
185 -202 209 -20 14 -24 21 -16 35 14 27 12 81 -5 130 -14 38 -13 52 5 155 37
209 26 296 -50 415 -32 49 -118 103 -224 140 -58 20 -211 32 -295 23z m671
-1004 c109 -111 137 -154 56 -85 -23 20 -69 49 -103 65 -65 31 -91 55 -96 86
-4 23 7 45 23 45 6 0 60 -50 120 -111z"/>
<path d="M271 2384 c0 -11 3 -14 6 -6 3 7 2 16 -1 19 -3 4 -6 -2 -5 -13z"/>
<path d="M1335 2112 c6 -5 46 -25 89 -43 43 -17 113 -55 154 -83 106 -70 271
-232 362 -354 137 -184 198 -309 278 -574 52 -171 71 -279 79 -441 l6 -128
-38 22 c-25 15 -36 18 -33 9 2 -8 19 -22 38 -33 32 -18 35 -18 72 -1 37 16 83
65 73 76 -3 3 -24 -13 -48 -36 l-42 -40 -7 119 c-10 182 -33 303 -94 495 -81
255 -142 378 -272 550 -139 183 -334 352 -488 422 -87 40 -146 58 -129 40z"/>
<path d="M1485 2110 c-3 -6 1 -7 9 -4 18 7 21 14 7 14 -6 0 -13 -4 -16 -10z"/>
<path d="M1426 1897 c3 -10 9 -15 12 -12 3 3 0 11 -7 18 -10 9 -11 8 -5 -6z"/>
<path d="M1421 1854 c0 -11 3 -14 6 -6 3 7 2 16 -1 19 -3 4 -6 -2 -5 -13z"/>
<path d="M1846 1842 c-3 -5 1 -9 9 -9 8 0 12 4 9 9 -3 4 -7 8 -9 8 -2 0 -6 -4
-9 -8z"/>
<path d="M1915 1740 c-3 -6 1 -7 9 -4 18 7 21 14 7 14 -6 0 -13 -4 -16 -10z"/>
<path d="M1426 1693 c-6 -14 -5 -15 5 -6 7 7 10 15 7 18 -3 3 -9 -2 -12 -12z"/>
<path d="M2075 1539 c-4 -6 -5 -12 -2 -15 2 -3 7 2 10 11 7 17 1 20 -8 4z"/>
<path d="M342 1510 c0 -14 2 -19 5 -12 2 6 2 18 0 25 -3 6 -5 1 -5 -13z"/>
<path d="M2131 1444 c0 -11 3 -14 6 -6 3 7 2 16 -1 19 -3 4 -6 -2 -5 -13z"/>
<path d="M1196 1175 c4 -8 11 -15 16 -15 6 0 5 6 -2 15 -7 8 -14 15 -16 15 -2
0 -1 -7 2 -15z"/>
<path d="M1165 1009 c-4 -6 -5 -12 -2 -15 2 -3 7 2 10 11 7 17 1 20 -8 4z"/>
<path d="M956 343 c-6 -14 -5 -15 5 -6 7 7 10 15 7 18 -3 3 -9 -2 -12 -12z"/>
<path d="M1083 205 c0 -8 4 -12 9 -9 5 3 6 10 3 15 -9 13 -12 11 -12 -6z"/>
<path d="M1110 202 c0 -5 7 -9 15 -9 8 0 12 4 9 9 -3 4 -9 8 -15 8 -5 0 -9 -4
-9 -8z"/>
</g>
</svg>
