<?xml version="1.0" standalone="no"?>
<!DOCTYPE svg PUBLIC "-//W3C//DTD SVG 20010904//EN"
 "http://www.w3.org/TR/2001/REC-SVG-20010904/DTD/svg10.dtd">
<svg version="1.0" xmlns="http://www.w3.org/2000/svg"
 width="300.000000pt" height="351.000000pt" viewBox="0 0 300.000000 351.000000"
 preserveAspectRatio="xMidYMid meet">
<metadata>
Created by potrace 1.10, written by Peter Selinger 2001-2011
</metadata>
<g transform="translate(0.000000,351.000000) scale(0.100000,-0.100000)"
fill="#000000" stroke="none">
<path d="M1418 3491 c-162 -65 -283 -219 -339 -431 -31 -118 -31 -319 0 -434
27 -101 89 -217 150 -281 78 -83 77 -79 44 -125 -27 -38 -126 -108 -329 -232
-137 -83 -180 -116 -288 -219 -123 -117 -478 -501 -544 -587 -70 -92 -112
-187 -112 -252 0 -146 85 -320 233 -478 28 -28 54 -52 60 -52 5 0 -21 33 -59
73 -186 196 -265 415 -200 559 32 74 124 198 215 293 42 44 145 154 229 245
197 216 335 333 497 425 138 79 276 177 306 217 l33 44 58 -23 c139 -57 256
-48 361 28 31 21 59 39 64 39 4 0 24 -25 43 -56 44 -70 95 -113 190 -159 264
-126 345 -202 550 -520 72 -110 133 -204 138 -210 82 -102 201 -319 241 -441
37 -109 38 -135 10 -211 -35 -93 -82 -157 -166 -225 -107 -87 -164 -140 -158
-146 3 -3 11 2 18 11 6 10 61 57 121 105 86 69 117 101 148 152 50 84 72 159
64 219 -15 112 -89 273 -203 443 -37 56 -77 115 -87 132 -98 156 -272 411
-307 450 -77 87 -185 164 -325 232 -139 68 -200 119 -243 203 l-18 35 45 65
c104 151 152 301 152 473 0 290 -108 504 -314 623 -67 38 -205 46 -278 16z
m268 -24 c293 -150 405 -613 232 -962 -76 -155 -169 -246 -283 -280 -113 -34
-263 -5 -341 67 -101 93 -167 205 -206 348 -29 108 -29 294 0 410 55 217 181
373 349 436 61 23 187 13 249 -19z"/>
<path d="M1185 1730 c-29 -57 -29 -55 28 -86 15 -8 27 -10 27 -5 0 5 -11 12
-25 15 -47 12 -28 34 53 59 42 14 103 30 135 37 32 6 56 14 53 17 -7 8 -152
-26 -209 -48 -66 -26 -72 -24 -47 17 12 19 20 38 17 41 -3 3 -18 -19 -32 -47z"/>
<path d="M1790 1717 c14 -6 50 -22 80 -35 80 -36 180 -95 180 -107 0 -5 -14
-22 -32 -37 -18 -14 -31 -29 -28 -31 12 -12 63 43 69 74 7 34 -6 89 -22 89 -4
0 -3 -9 3 -19 27 -51 9 -48 -116 15 -69 35 -134 64 -143 63 -10 0 -7 -4 9 -12z"/>
<path d="M903 1491 c-52 -58 -95 -117 -117 -159 -26 -50 -18 -51 10 -2 29 50
79 116 133 173 19 20 31 37 26 36 -6 -1 -29 -22 -52 -48z"/>
<path d="M2160 1466 c0 -3 15 -25 33 -48 17 -24 46 -69 62 -100 17 -32 33 -58
38 -58 10 0 -16 49 -68 131 -39 60 -65 90 -65 75z"/>
<path d="M487 1129 c-29 -17 -47 -72 -48 -146 -1 -86 -18 -137 -48 -141 -42
-6 -49 -83 -10 -118 15 -14 21 -15 34 -4 31 26 36 48 21 85 -13 31 -13 39 0
71 9 21 19 76 23 125 9 116 48 164 86 106 12 -19 13 -37 5 -106 -5 -46 -7
-124 -4 -174 5 -78 2 -108 -20 -199 -19 -79 -26 -134 -26 -207 0 -92 -2 -102
-24 -128 -20 -23 -28 -26 -43 -17 -25 15 -37 112 -17 135 22 24 18 86 -6 99
-11 6 -20 16 -20 23 0 7 9 20 20 30 29 24 28 92 -2 108 -42 23 -76 -53 -43
-97 21 -28 18 -44 -11 -71 -17 -16 -24 -29 -19 -41 14 -34 18 -92 6 -92 -12 0
-15 -38 -5 -64 3 -9 18 -16 32 -16 14 0 33 -7 43 -16 24 -22 64 -11 86 23 14
22 17 45 15 119 -2 71 3 116 23 200 21 88 26 129 23 214 -1 58 1 141 6 185 7
74 6 82 -13 103 -24 24 -37 27 -64 11z m-61 -326 c14 -51 0 -79 -35 -68 -16 5
-21 15 -21 44 0 42 5 51 31 51 10 0 20 -11 25 -27z m-6 -188 c0 -34 -22 -61
-40 -50 -14 9 -13 78 2 93 18 18 38 -5 38 -43z m-9 -115 c18 0 9 -67 -11 -85
-15 -13 -17 -22 -10 -36 6 -10 10 -31 10 -48 0 -26 -4 -31 -25 -31 -29 0 -45
41 -25 65 9 10 10 31 6 66 -7 54 5 84 31 74 8 -3 19 -5 24 -5z"/>
<path d="M686 1053 c-9 -48 -16 -109 -16 -135 0 -52 -4 -56 -32 -31 -10 9 -21
14 -24 11 -3 -3 11 -16 30 -28 20 -12 36 -28 36 -36 0 -11 7 -8 24 8 29 29 61
78 50 78 -5 -1 -18 -15 -29 -32 -11 -17 -24 -31 -30 -30 -17 3 -17 83 0 180
10 51 15 95 12 98 -3 3 -12 -35 -21 -83z"/>
<path d="M2344 1085 c14 -47 26 -179 17 -188 -6 -6 -21 2 -40 21 -17 17 -31
28 -31 24 0 -3 14 -21 31 -38 l32 -33 34 26 c18 14 31 28 29 31 -3 3 -12 -1
-21 -8 -9 -8 -15 -8 -15 -2 0 39 -23 169 -32 177 -7 7 -8 4 -4 -10z"/>
<path d="M2505 1076 c-25 -37 -37 -142 -31 -246 5 -69 2 -116 -9 -169 -17 -82
-19 -148 -6 -184 5 -14 6 -56 0 -103 -11 -101 0 -145 44 -173 17 -11 40 -26
50 -33 16 -11 21 -9 38 12 16 18 19 32 13 55 -7 33 -7 47 2 116 6 46 -5 70
-38 82 -9 3 -5 13 13 33 38 41 44 69 24 111 -16 34 -16 36 4 54 29 27 29 91 0
120 -23 23 -23 44 -3 240 6 59 4 69 -15 88 -28 28 -67 27 -86 -3z m82 -12 c15
-24 15 -34 2 -117 -20 -132 -18 -172 9 -197 29 -27 30 -82 1 -111 -14 -14 -24
-18 -31 -11 -13 13 -15 80 -4 112 6 19 5 22 -4 14 -16 -16 -24 -84 -13 -113 7
-17 4 -33 -9 -59 -22 -44 -23 -78 -3 -115 13 -25 12 -31 -5 -60 -22 -35 -26
-87 -9 -104 16 -16 2 -83 -16 -83 -27 0 -37 40 -35 149 2 58 -1 126 -5 151 -5
31 -1 74 10 130 13 63 16 107 11 170 -7 88 5 207 26 248 16 30 53 29 75 -4z
m13 -536 c0 -41 -34 -78 -55 -57 -17 17 -10 97 10 119 l19 21 13 -23 c7 -13
12 -40 13 -60z m-16 -124 c31 -31 14 -114 -24 -114 -39 0 -51 78 -19 117 15
17 24 17 43 -3z m5 -156 c9 -25 8 -36 -4 -55 -13 -19 -19 -21 -35 -13 -22 12
-25 35 -10 74 13 35 36 33 49 -6z"/>
<path d="M2336 699 c-28 -80 -58 -154 -80 -197 -14 -29 -24 -52 -22 -52 19 0
124 245 112 258 -3 3 -8 -1 -10 -9z"/>
<path d="M745 573 c26 -58 155 -257 162 -249 2 2 -30 54 -71 116 -42 61 -81
129 -87 151 -7 21 -16 39 -20 39 -5 0 3 -26 16 -57z"/>
<path d="M2074 276 c-50 -42 -163 -116 -179 -116 -7 0 -18 -7 -25 -15 -12 -15
-50 -21 -50 -9 0 4 10 22 21 41 12 19 19 37 16 39 -3 3 -15 -13 -27 -36 l-22
-43 29 -24 c37 -31 63 -46 63 -36 0 5 -9 14 -20 21 -30 18 -25 26 33 57 73 40
158 98 186 129 34 36 22 33 -25 -8z"/>
<path d="M1100 180 c45 -33 123 -64 223 -86 61 -14 113 -27 114 -28 2 -2 -6
-14 -17 -29 -26 -32 -26 -45 0 -22 11 10 20 24 20 31 0 7 7 19 15 27 13 14 11
19 -14 46 -16 17 -35 31 -42 31 -7 0 2 -13 21 -29 19 -16 32 -32 29 -35 -11
-12 -232 43 -289 72 -64 31 -81 38 -60 22z"/>
</g>
</svg>
